<svg xmlns="http://www.w3.org/2000/svg" viewBox="0 0 32 32" fill="none">
  <!-- Stylized live-edge slab icon for favicon -->
  <rect width="32" height="32" rx="8" fill="#004526"/>
  <path d="M6 8 C8 5, 12 4, 16 5 C20 6, 24 5, 26 7 L26 25 C24 27, 20 28, 16 27 C12 26, 8 27, 6 25 Z" fill="#006834"/>
  <path d="M9 11 C11 9.5, 14 9, 16 10 C18 11, 22 10, 24 11.5 L24 22 C22 23.5, 18 24, 16 23 C14 22, 10 23, 9 22 Z" fill="#004526" opacity="0.5"/>
  <!-- Grain lines -->
  <path d="M10 14 C13 13, 16 13, 19 14 C22 15, 24 14, 25 15" stroke="#c5a059" stroke-width="1" fill="none" opacity="0.7"/>
  <path d="M10 18 C13 17, 17 17, 20 18 C23 19, 24 18, 25 19" stroke="#c5a059" stroke-width="1" fill="none" opacity="0.5"/>
  <!-- "L" letter hint -->
  <text x="12" y="22" font-family="Inter, sans-serif" font-weight="800" font-size="12" fill="white" opacity="0.9">L</text>
</svg>
